Coordinates
version=1
nRows=17
nColumns=34
inDegrees=yes

Units are S.I. units (second, meters, Newtons, ...)
If the header above contains a line with 'inDegrees', this indicates whether rotational values are in degrees (yes) or radians (no).

endheader
time	pelvis_tilt	pelvis_list	pelvis_rotation	pelvis_tx	pelvis_ty	pelvis_tz	hip_flexion_r	hip_adduction_r	hip_rotation_r	knee_angle_r	ankle_angle_r	subtalar_angle_r	mtp_angle_r	hip_flexion_l	hip_adduction_l	hip_rotation_l	knee_angle_l	ankle_angle_l	subtalar_angle_l	mtp_angle_l	lumbar_extension	lumbar_bending	lumbar_rotation	arm_flex_r	arm_add_r	arm_rot_r	elbow_flex_r	pro_sup_r	arm_flex_l	arm_add_l	arm_rot_l	elbow_flex_l	pro_sup_l
      3.63333330	     10.80475801	     -4.58598525	    160.84092867	      0.26938926	      0.82300369	     -0.15033156	     27.16490841	     -0.21908399	     -1.57370408	     98.53259436	      0.00000000	      0.00000000	      0.00000000	     27.57364329	     -4.25770617	     -1.70371935	    101.28739009	      0.00000000	      0.00000000	      0.00000000	      7.63474969	      1.51298032	      0.67790877	      0.00000000	      0.00000000	      0.00000000	      0.00000000	      0.00000000	      0.00000000	      0.00000000	      0.00000000	      0.00000000	      0.00000000
      3.65000000	     10.87714848	     -4.60899496	    160.90701549	      0.26790876	      0.82267101	     -0.15083547	     27.15157313	     -0.22370644	     -1.54505670	     98.59134588	      0.00000000	      0.00000000	      0.00000000	     27.51087390	     -4.28238085	     -1.68146010	    101.27381272	      0.00000000	      0.00000000	      0.00000000	      7.65709673	      1.51865299	      0.68058707	      0.00000000	      0.00000000	      0.00000000	      0.00000000	      0.00000000	      0.00000000	      0.00000000	      0.00000000	      0.00000000	      0.00000000
      3.66666670	     10.94664962	     -4.62765595	    160.96705833	      0.26643188	      0.82238159	     -0.15120869	     27.15092345	     -0.21309937	     -1.51400353	     98.72822060	      0.00000000	      0.00000000	      0.00000000	     27.42757286	     -4.25517281	     -1.59058630	    101.21242808	      0.00000000	      0.00000000	      0.00000000	      7.79035415	      1.51705129	      0.68677345	      0.00000000	      0.00000000	      0.00000000	      0.00000000	      0.00000000	      0.00000000	      0.00000000	      0.00000000	      0.00000000	      0.00000000
      3.68333330	     11.44218636	     -4.93864691	    161.12475624	      0.26491871	      0.82130753	     -0.15144154	     27.75185410	     -0.41741066	     -1.43629677	     98.95099439	      0.00000000	      0.00000000	      0.00000000	     27.95200519	     -4.03814139	     -1.51163107	    101.20916809	      0.00000000	      0.00000000	      0.00000000	      8.58062201	      1.29190597	      0.67006790	      0.00000000	      0.00000000	      0.00000000	      0.00000000	      0.00000000	      0.00000000	      0.00000000	      0.00000000	      0.00000000	      0.00000000
      3.70000000	     11.52376746	     -4.95105144	    161.18467201	      0.26350738	      0.82121073	     -0.15177577	     27.76328566	     -0.41261221	     -1.38851309	     99.06084006	      0.00000000	      0.00000000	      0.00000000	     27.87919800	     -4.04914317	     -1.45131976	    101.13569915	      0.00000000	      0.00000000	      0.00000000	      8.61609052	      1.32447894	      0.67084616	      0.00000000	      0.00000000	      0.00000000	      0.00000000	      0.00000000	      0.00000000	      0.00000000	      0.00000000	      0.00000000	      0.00000000
      3.71666670	     11.62537015	     -4.98037823	    161.23044524	      0.26212949	      0.82109947	     -0.15206231	     27.80867438	     -0.42331443	     -1.32712950	     99.17556047	      0.00000000	      0.00000000	      0.00000000	     27.83070283	     -4.01346120	     -1.36719434	    101.04459492	      0.00000000	      0.00000000	      0.00000000	      8.67312586	      1.36190075	      0.67015871	      0.00000000	      0.00000000	      0.00000000	      0.00000000	      0.00000000	      0.00000000	      0.00000000	      0.00000000	      0.00000000	      0.00000000
      3.73333330	     12.12171482	     -5.29838147	    161.34636040	      0.26070783	      0.82034846	     -0.15230477	     28.38840913	     -0.64437882	     -1.22798508	     99.38894768	      0.00000000	      0.00000000	      0.00000000	     28.34092901	     -3.79548311	     -1.32217314	    100.94368443	      0.00000000	      0.00000000	      0.00000000	      9.34752095	      1.16908841	      0.64605568	      0.00000000	      0.00000000	      0.00000000	      0.00000000	      0.00000000	      0.00000000	      0.00000000	      0.00000000	      0.00000000	      0.00000000
      3.75000000	     12.23643119	     -5.32309162	    161.40054683	      0.25943619	      0.82048731	     -0.15269792	     28.38607954	     -0.64065844	     -1.17869404	     99.45172350	      0.00000000	      0.00000000	      0.00000000	     28.33078848	     -3.81346199	     -1.25711838	    100.81028251	      0.00000000	      0.00000000	      0.00000000	      9.32165436	      1.20714903	      0.65122007	      0.00000000	      0.00000000	      0.00000000	      0.00000000	      0.00000000	      0.00000000	      0.00000000	      0.00000000	      0.00000000	      0.00000000
      3.76666670	     12.70268042	     -5.45664765	    161.55254365	      0.25818296	      0.81994617	     -0.15290592	     28.79420988	     -0.69024939	     -1.23301891	     99.50964941	      0.00000000	      0.00000000	      0.00000000	     28.79541508	     -3.74367881	     -1.05890523	    100.71717356	      0.00000000	      0.00000000	      0.00000000	      9.76888842	      1.23274548	      0.73161611	      0.00000000	      0.00000000	      0.00000000	      0.00000000	      0.00000000	      0.00000000	      0.00000000	      0.00000000	      0.00000000	      0.00000000
      3.78333330	     12.82935995	     -5.49742582	    161.61016452	      0.25708455	      0.82006862	     -0.15337878	     28.78458369	     -0.69191517	     -1.19201459	     99.53902540	      0.00000000	      0.00000000	      0.00000000	     28.82231669	     -3.76039207	     -1.00984575	    100.55698768	      0.00000000	      0.00000000	      0.00000000	      9.71197816	      1.25819621	      0.73470899	      0.00000000	      0.00000000	      0.00000000	      0.00000000	      0.00000000	      0.00000000	      0.00000000	      0.00000000	      0.00000000	      0.00000000
      3.80000000	     12.98174173	     -5.54433351	    161.67924698	      0.25601457	      0.82028285	     -0.15386497	     28.78902809	     -0.70296701	     -1.17231711	     99.52733152	      0.00000000	      0.00000000	      0.00000000	     28.88135039	     -3.77432255	     -0.93556597	    100.37191684	      0.00000000	      0.00000000	      0.00000000	      9.64024189	      1.27683029	      0.74504966	      0.00000000	      0.00000000	      0.00000000	      0.00000000	      0.00000000	      0.00000000	      0.00000000	      0.00000000	      0.00000000	      0.00000000
      3.81666670	     13.33986130	     -5.61034936	    161.99118075	      0.25480717	      0.82011844	     -0.15407759	     28.94410065	     -0.78844242	     -1.42126536	     99.47555501	      0.00000000	      0.00000000	      0.00000000	     29.27988293	     -3.67836374	     -0.56513661	    100.34979148	      0.00000000	      0.00000000	      0.00000000	      9.81106135	      1.25635307	      0.84272943	      0.00000000	      0.00000000	      0.00000000	      0.00000000	      0.00000000	      0.00000000	      0.00000000	      0.00000000	      0.00000000	      0.00000000
      3.83333330	     13.49919916	     -5.67690091	    162.07271154	      0.25345406	      0.82029382	     -0.15488278	     28.91090322	     -0.77973148	     -1.38558223	     99.46131643	      0.00000000	      0.00000000	      0.00000000	     29.32601961	     -3.72377410	     -0.53178969	    100.23208975	      0.00000000	      0.00000000	      0.00000000	      9.77338314	      1.25535420	      0.84542829	      0.00000000	      0.00000000	      0.00000000	      0.00000000	      0.00000000	      0.00000000	      0.00000000	      0.00000000	      0.00000000	      0.00000000
      3.85000000	     14.25344287	     -5.82902834	    162.36310053	      0.25170330	      0.81943242	     -0.15560263	     29.48827517	     -0.72261915	     -1.56546235	     99.40588931	      0.00000000	      0.00000000	      0.00000000	     30.09198174	     -3.76413164	     -0.22449825	    100.27305433	      0.00000000	      0.00000000	      0.00000000	     10.56205754	      1.27336344	      0.82070840	      0.00000000	      0.00000000	      0.00000000	      0.00000000	      0.00000000	      0.00000000	      0.00000000	      0.00000000	      0.00000000	      0.00000000
      3.86666670	     14.41734512	     -5.92135124	    162.47106386	      0.24980954	      0.81947037	     -0.15668768	     29.40256359	     -0.72339681	     -1.52986354	     99.38744188	      0.00000000	      0.00000000	      0.00000000	     30.08059291	     -3.80566661	     -0.19042002	    100.21129181	      0.00000000	      0.00000000	      0.00000000	     10.53220952	      1.25876207	      0.82946384	      0.00000000	      0.00000000	      0.00000000	      0.00000000	      0.00000000	      0.00000000	      0.00000000	      0.00000000	      0.00000000	      0.00000000
      3.88333330	     14.66226903	     -6.00508722	    162.73328279	      0.24725422	      0.81957896	     -0.15788211	     29.24654152	     -0.74726520	     -1.70350225	     99.18682001	      0.00000000	      0.00000000	      0.00000000	     30.08744297	     -3.77256403	      0.05635315	    100.10972989	      0.00000000	      0.00000000	      0.00000000	     10.71175902	      1.08634834	      0.90787529	      0.00000000	      0.00000000	      0.00000000	      0.00000000	      0.00000000	      0.00000000	      0.00000000	      0.00000000	      0.00000000	      0.00000000
      3.90000000	     14.94133458	     -6.10982437	    162.94029010	      0.24454115	      0.81957066	     -0.15911576	     29.13155927	     -0.76665925	     -1.78578664	     99.01497598	      0.00000000	      0.00000000	      0.00000000	     30.08843157	     -3.77189372	      0.21405703	    100.04466750	      0.00000000	      0.00000000	      0.00000000	     10.89154286	      0.98687843	      0.97293546	      0.00000000	      0.00000000	      0.00000000	      0.00000000	      0.00000000	      0.00000000	      0.00000000	      0.00000000	      0.00000000	      0.00000000
